<?xml version="1.0" encoding="utf-8"?>
<svg version="1.1" id="Layer_1" xmlns="http://www.w3.org/2000/svg" xmlns:xlink="http://www.w3.org/1999/xlink" x="0px" y="0px"
	 viewBox="8.5 11 43 7" style="enable-background:new 8.5 11 43 7;" xml:space="preserve">
<style type="text/css">
	.st0{fill:#EDE8B7;}
</style>
<path class="st0" d="M50.9,11.2c-0.6-0.2-0.9,0.3-1.4,0.1l0.1-0.1c-0.2-0.1-0.5,0-0.9-0.1c0.1,0,0.2,0.2,0,0.2
	c-0.4-0.1-0.6,0-0.9-0.2l-0.3,0.2c-1.3,0-6.6,0.3-7.9,0.3h0.1c-2,0.1-6.2,0.1-8.3,0.4c-0.3-0.2-0.8-0.1-1.1-0.2
	c0.2,0.1,0.1,0.2,0,0.2c-1,0-0.1,0.1-1.1,0.2c-0.3,0-0.8,0.1-1.4,0.1c-0.6,0-1.3,0-2-0.1c-1.5,0-2.9-0.2-3.4-0.3
	c-0.6,0.3-1.3,0-1.8,0.2v-0.1c-0.6,0.1-4-0.4-4.7-0.3h0.1c-0.6,0.2-0.5-0.1-0.9-0.3c0,0.3-0.5,0.5-0.7,0.5v-0.1
	c-0.3,0-1,0.3-1.5,0.3v-0.2c-0.4,0.2-1.2,0.1-1.5,0.1C11,11.8,9.9,11.4,9,11.6l-0.5-0.5h0v7h31.3h11.7v-7
	C51.3,11.3,51.1,11.4,50.9,11.2z"/>
</svg>
