<?xml version="1.0" encoding="utf-8"?>
<!-- Generator: Adobe Illustrator 18.1.1, SVG Export Plug-In . SVG Version: 6.00 Build 0)  -->
<svg version="1.1" id="Layer_1" xmlns="http://www.w3.org/2000/svg" xmlns:xlink="http://www.w3.org/1999/xlink" x="0px" y="0px"
	 viewBox="0 0 45.5 9.8" enable-background="new 0 0 45.5 9.8" xml:space="preserve">
<g>
	<g>
		<g>
			<g>
				<g>
					<path fill="#61A9B9" d="M0,7.7C0.1,7.9,0.4,7.9,0.6,8C0.4,7.8,0.3,7.7,0,7.7z"/>
					<polygon fill="#61A9B9" points="0.6,8 0.6,8 0.6,8 					"/>
					<path fill="#61A9B9" d="M45.3,0.3c-0.1,0-0.1,0-0.2,0C45.2,0.3,45.2,0.3,45.3,0.3z"/>
					<path fill="#61A9B9" d="M11.7,9.3L11.8,9c0.5,0,0.1,0.4,0.7,0.3c0.2-0.4,0.8,0.1,1-0.1c0,0,0.2,0.1,0.2,0.2
						c0.1-0.2,0.3,0,0.4-0.1c0.1-0.1,0-0.1-0.1-0.2l0.4-0.1c0.1,0.1,0.2,0.2,0,0.3c0.5,0.1,1.8,0.2,3.2,0.3C19,9.7,20.6,9.7,21,9.7
						c-0.1-0.2-0.4-0.1-0.6-0.3c0.3-0.2,0.4,0.1,0.5-0.1c0.1,0.4,0.6,0.1,0.8,0.5l0.1-0.2l0.1,0.1c1.2-0.3,0.3-0.1,1.3-0.1
						c0.6,0,0.9-0.4,1.2-0.3c0,0-0.2-0.2,0-0.2c0,0.2,0.4-0.2,0.5,0.1c0.2,0,0.6,0,0.5-0.3c0.1,0.1,0.5,0.2,0.3,0.3
						c0.1,0,0.3,0.1,0.4,0l-0.2-0.1c0.5,0,0.8,0.2,1.1-0.1l-0.2-0.1c0.3,0,0.5,0,0.7,0.2l-0.3,0.1c0.5,0,0.8,0,1.2-0.2l-0.1,0
						c0.5-0.3,3.3-0.6,3.8-0.9l-0.2-0.2l0.4-0.2c0,0-0.2,0.7-0.2,0.7c0.9,0,5.5-0.2,6.4-0.1c0.3,0.1,0.1,0.4,0.1,0.4
						c0.4-0.1,0.2-0.2,0.5-0.2c0.1,0,0,0.2-0.1,0.2c0.2,0,0.3,0,0.3-0.1c-0.2-0.1-0.1-0.4-0.2-0.5l0.4,0l0,0.2
						c0.1,0,0.2-0.5,0.7-0.4c0.7,0.1,1.5,0,2.3,0c0,0.1-0.2,0.2-0.3,0.2c0.1,0,0.2,0,0.3,0.1C42.1,8,42.6,8.1,42.4,8
						c0.5-0.4,1.2,0,1.7-0.3c0-0.4,1-6.7,1-7.2c0.1,0,0.3,0,0.3,0.1c0-0.1-0.3-0.2-0.5-0.1l0,0.2c-0.4,0.1-0.1-0.1-0.4-0.1
						c0-0.2,0.3-0.2,0.6-0.3c-0.3,0-0.5-0.2-0.6,0.1c-0.2-0.1,0-0.2-0.3-0.3c-0.2,0.1-0.5,0.3-0.7,0.1l0,0c-0.6-0.2-0.9,0.3-1.4,0.1
						l0.1-0.1c-0.2-0.1-0.5,0-0.9-0.1c0.1,0,0.2,0.2,0,0.2c-0.4-0.1-0.6,0-0.9-0.2l-0.3,0.2c-1.3,0-6.6,0.3-7.9,0.3l0.1,0
						c-2,0.1-6.2,0.1-8.3,0.4c-0.3-0.2-0.8-0.1-1.1-0.2c0.2,0.1,0.1,0.2,0,0.2c-1,0-0.1,0.1-1.1,0.2c-0.3,0-0.8,0.1-1.4,0.1
						c-0.6,0-1.3,0-2-0.1C16.9,1.2,15.5,1,15,0.9c-0.6,0.3-1.3,0-1.8,0.2L13.2,1c-0.6,0.1-4-0.4-4.7-0.3l0.1,0
						C8,0.9,8.1,0.6,7.7,0.4c0,0.3-0.5,0.5-0.7,0.5l0-0.1c-0.3,0-1,0.3-1.5,0.3l0-0.2C5.1,1.1,4.3,1,4,1C3.4,0.8,2.3,0.4,1.4,0.6
						L0.9,0.1l-0.1,0c0,0-1.5,6-0.4,7.4l0,0.2l0.2,0C0.9,7.8,1.1,7.6,1,7.8L0.6,7.7c0.3,0.1,0.1,0.2,0,0.2C0.7,8,0.8,8,0.9,8.1
						C1,8,0.9,8,0.9,8c0.2,0,0.4-0.2,0.6-0.1c0.3,0,0,0.3,0.3,0.3c1.8,0.3,3.6,0.6,5.4,0.7C7.2,9,7.2,9,7.1,9c0.6,0,1.1,0,1.6,0
						c0.1,0.1,0.2,0.2,0.2,0.3C8.8,9.1,11.7,9.3,11.7,9.3z"/>
				</g>
			</g>
		</g>
	</g>
</g>
</svg>
