<?xml version="1.0" encoding="utf-8"?>
<!-- Generator: Adobe Illustrator 18.1.1, SVG Export Plug-In . SVG Version: 6.00 Build 0)  -->
<svg version="1.1" id="Layer_1" xmlns="http://www.w3.org/2000/svg" xmlns:xlink="http://www.w3.org/1999/xlink" x="0px" y="0px"
	 viewBox="0 0 34.5 45.6" enable-background="new 0 0 34.5 45.6" xml:space="preserve">
<g>
	<g>
		<g>
			<g>
				<g>
					<path fill="#78B4C1" d="M13.8,0c-0.2,0.1-0.3,0.3-0.4,0.5C13.6,0.4,13.7,0.2,13.8,0z"/>
					<polygon fill="#78B4C1" points="13.4,0.5 13.4,0.5 13.4,0.5 					"/>
					<path fill="#78B4C1" d="M5.2,45.5c0-0.1,0-0.1,0.1-0.2C5.2,45.4,5.2,45.4,5.2,45.5z"/>
					<path fill="#78B4C1" d="M9.3,11l0.2,0.1c-0.2,0.5-0.3,0.1-0.4,0.6c0.3,0.3-0.3,0.8-0.2,1c0,0-0.1,0.2-0.2,0.2
						c0.2,0.1,0,0.3,0,0.4c0,0.1,0.1,0,0.1,0l-0.1,0.4c-0.1,0.1-0.2,0.1-0.2,0c-0.4,0.9-2,5.1-2.3,6.1c0.2-0.1,0.2-0.4,0.4-0.4
						c0,0.3-0.2,0.4-0.1,0.5c-0.4,0-0.3,0.5-0.7,0.6l0.2,0.1l-0.2,0.1c-0.2,1.2,0,0.3-0.4,1.3c-0.2,0.6,0,0.9-0.2,1.2
						c0,0,0.2-0.1,0.2,0c-0.2,0,0,0.4-0.2,0.5c0,0.2-0.2,0.6,0.1,0.5c-0.1,0-0.3,0.4-0.3,0.2c-0.1,0.1-0.1,0.3-0.1,0.4L5,24.5
						c-0.1,0.5-0.4,0.7-0.3,1.1l0.1-0.1C4.8,25.7,4.7,26,4.5,26l0-0.3c-0.2,0.5-0.2,0.8-0.3,1.2l0.1-0.1c0,0.6-0.7,3.3-0.6,3.8
						L4,30.4l0,0.4c0,0-0.5-0.4-0.4-0.4c-0.3,0.9-1.7,5.4-2.1,6.1c-0.2,0.3-0.3,0-0.3,0c-0.1,0.4,0.1,0.2,0,0.6
						C1.1,37.2,1.1,37,1,37c0,0.2-0.1,0.3-0.1,0.3c0.1-0.2,0.3,0,0.5,0l-0.2,0.4l-0.1-0.1c0,0.1,0.3,0.4,0.1,0.8
						c-0.3,0.7-0.5,1.5-0.8,2.2c-0.1,0-0.1-0.2-0.1-0.4c0,0.1-0.1,0.2-0.2,0.3c0.2-0.1,0,0.3,0.1,0.2c0.1,0.6-0.4,1.2-0.3,1.7
						c0.3,0.1,4.7,2.7,5.1,2.8C5,45.4,5,45.5,4.9,45.6c0.1,0,0.2-0.3,0.2-0.4L5,45c0.1-0.4,0.1,0,0.2-0.4c0.2,0,0.1,0.4,0,0.6
						c0.1-0.2,0.3-0.4,0.2-0.6c0.1-0.2,0.2,0.1,0.3-0.2c0-0.2,0-0.5,0.1-0.7l0,0c0.3-0.5,0.1-0.9,0.4-1.4l0,0.1
						c0.1-0.1,0.2-0.5,0.4-0.8c-0.1,0.1-0.2,0.1-0.2-0.1c0.2-0.3,0.2-0.6,0.4-0.8l-0.1-0.3c0.5-1.3,2-6.4,2.4-7.7l0,0.1
						c0.6-2,2-6,2.5-8.1c0.3-0.3,0.4-0.7,0.5-1c-0.1,0.2-0.2,0.1-0.2-0.1c0.4-1-0.1-0.1,0.2-1.1c0.3-1.2,1.9-5.6,2.4-6.6
						c0-0.6,0.4-1.3,0.4-1.8l0,0.1c0.1-0.6,1.5-3.8,1.6-4.5l-0.1,0.1c0.1-0.6,0.3-0.5,0.5-0.9c-0.3,0-0.2-0.6-0.2-0.8l0.1,0
						c0.1-0.3,0.1-1,0.2-1.5l0.1,0.1c0-0.4,0.3-1.2,0.4-1.5c0.3-0.6,0.9-1.6,1-2.5l0.6-0.4l0-0.1c0,0-4.3-2.5-5.7-1.7l-0.1-0.1
						l-0.1,0.2c-0.2,0.3,0,0.4-0.2,0.4l0.1-0.4c-0.1,0.3-0.1,0-0.2-0.1c-0.1,0.1-0.1,0.2-0.2,0.3c0,0.1,0.1,0,0.1-0.1
						c0,0.2,0.1,0.4-0.1,0.6c-0.1,0.3-0.2-0.1-0.4,0.3c-0.7,1.7-1.4,3.3-2,5.1c-0.1,0-0.1,0-0.1-0.1c-0.1,0.6-0.3,1-0.4,1.5
						c-0.1,0.1-0.2,0.1-0.3,0.1C10.3,8.3,9.3,11,9.3,11z"/>
				</g>
			</g>
		</g>
	</g>
</g>
<g>
	<g>
		<g>
			<g>
				<g>
					<path fill="#78B4C1" d="M28.8,0c-0.2,0.1-0.3,0.3-0.4,0.5C28.6,0.4,28.7,0.2,28.8,0z"/>
					<polygon fill="#78B4C1" points="28.4,0.5 28.4,0.5 28.4,0.5 					"/>
					<path fill="#78B4C1" d="M20.2,45.5c0-0.1,0-0.1,0.1-0.2C20.2,45.4,20.2,45.4,20.2,45.5z"/>
					<path fill="#78B4C1" d="M24.3,11l0.2,0.1c-0.2,0.5-0.3,0.1-0.4,0.6c0.3,0.3-0.3,0.8-0.2,1c0,0-0.1,0.2-0.2,0.2
						c0.2,0.1,0,0.3,0,0.4c0,0.1,0.1,0,0.1,0l-0.1,0.4c-0.1,0.1-0.2,0.1-0.2,0c-0.4,0.9-2,5.1-2.3,6.1c0.2-0.1,0.2-0.4,0.4-0.4
						c0,0.3-0.2,0.4-0.1,0.5c-0.4,0-0.3,0.5-0.7,0.6l0.2,0.1l-0.2,0.1c-0.2,1.2,0,0.3-0.4,1.3c-0.2,0.6,0,0.9-0.2,1.2
						c0,0,0.2-0.1,0.2,0c-0.2,0,0,0.4-0.2,0.5c0,0.2-0.2,0.6,0.1,0.5c-0.1,0-0.3,0.4-0.3,0.2c-0.1,0.1-0.1,0.3-0.1,0.4l0.1-0.2
						c-0.1,0.5-0.4,0.7-0.3,1.1l0.1-0.1c-0.1,0.3-0.2,0.5-0.4,0.6l0-0.3c-0.2,0.5-0.2,0.8-0.3,1.2l0.1-0.1c0,0.6-0.7,3.3-0.6,3.8
						l0.2-0.2l0,0.4c0,0-0.5-0.4-0.4-0.4c-0.3,0.9-1.7,5.4-2.1,6.1c-0.2,0.3-0.3,0-0.3,0c-0.1,0.4,0.1,0.2,0,0.6
						C16.1,37.2,16.1,37,16,37c0,0.2-0.1,0.3-0.1,0.3c0.1-0.2,0.3,0,0.5,0l-0.2,0.4l-0.1-0.1c0,0.1,0.3,0.4,0.1,0.8
						c-0.3,0.7-0.5,1.5-0.8,2.2c-0.1,0-0.1-0.2-0.1-0.4c0,0.1-0.1,0.2-0.2,0.3c0.2-0.1,0,0.3,0.1,0.2c0.1,0.6-0.4,1.2-0.3,1.7
						c0.3,0.1,4.7,2.7,5.1,2.8c-0.1,0.1-0.1,0.3-0.2,0.3c0.1,0,0.2-0.3,0.2-0.4L20,45c0.1-0.4,0.1,0,0.2-0.4c0.2,0,0.1,0.4,0,0.6
						c0.1-0.2,0.3-0.4,0.2-0.6c0.1-0.2,0.2,0.1,0.3-0.2c0-0.2,0-0.5,0.1-0.7l0,0c0.3-0.5,0.1-0.9,0.4-1.4l0,0.1
						c0.1-0.1,0.2-0.5,0.4-0.8c-0.1,0.1-0.2,0.1-0.2-0.1c0.2-0.3,0.2-0.6,0.4-0.8l-0.1-0.3c0.5-1.3,2-6.4,2.4-7.7l0,0.1
						c0.6-2,2-6,2.5-8.1c0.3-0.3,0.4-0.7,0.5-1c-0.1,0.2-0.2,0.1-0.2-0.1c0.4-1-0.1-0.1,0.2-1.1c0.3-1.2,1.9-5.6,2.4-6.6
						c0-0.6,0.4-1.3,0.4-1.8l0,0.1c0.1-0.6,1.5-3.8,1.6-4.5l-0.1,0.1c0.1-0.6,0.3-0.5,0.5-0.9c-0.3,0-0.2-0.6-0.2-0.8l0.1,0
						c0.1-0.3,0.1-1,0.2-1.5l0.1,0.1c0-0.4,0.3-1.2,0.4-1.5c0.3-0.6,0.9-1.6,1-2.5l0.6-0.4l0-0.1c0,0-4.3-2.5-5.7-1.7l-0.1-0.1
						l-0.1,0.2c-0.2,0.3,0,0.4-0.2,0.4l0.1-0.4c-0.1,0.3-0.1,0-0.2-0.1c-0.1,0.1-0.1,0.2-0.2,0.3c0,0.1,0.1,0,0.1-0.1
						c0,0.2,0.1,0.4-0.1,0.6c-0.1,0.3-0.2-0.1-0.4,0.3c-0.7,1.7-1.4,3.3-2,5.1c-0.1,0-0.1,0-0.1-0.1c-0.1,0.6-0.3,1-0.4,1.5
						c-0.1,0.1-0.2,0.1-0.3,0.1C25.3,8.3,24.3,11,24.3,11z"/>
				</g>
			</g>
		</g>
	</g>
</g>
</svg>
