<?xml version="1.0" encoding="utf-8"?>
<!-- Generator: Adobe Illustrator 18.1.1, SVG Export Plug-In . SVG Version: 6.00 Build 0)  -->
<svg version="1.1" id="Layer_1" xmlns="http://www.w3.org/2000/svg" xmlns:xlink="http://www.w3.org/1999/xlink" x="0px" y="0px"
	 viewBox="0 0 142.4 38.1" enable-background="new 0 0 142.4 38.1" xml:space="preserve">
<g>
	<g>
		<g>
			<g>
				<g>
					<path fill="#65C9B5" d="M7.5,33.3c0.6,0.1,1.4-0.4,2.1-0.8C8.9,32.5,8.3,32.7,7.5,33.3z"/>
					<polygon fill="#65C9B5" points="9.7,32.5 9.7,32.5 9.7,32.5 					"/>
					<path fill="#65C9B5" d="M137.2,2.3c-0.2,0.1-0.4,0.2-0.6,0.4C136.9,2.6,137.1,2.5,137.2,2.3z"/>
					<path fill="#65C9B5" d="M34.5,23l0.4-0.5c1.7,1,0.1,0.9,1.7,1.7c1.1-0.4,2.5,1.7,3.3,1.6c0,0.1,0.7,0.5,0.5,0.8
						c0.5-0.3,0.8,0.4,1.4,0.6c0.2,0,0-0.2-0.1-0.4l1.2,0.5c0.3,0.4,0.3,0.7-0.2,0.5c0.8,0.5,2.4,1.6,4.4,2.9c0.5,0.3,1,0.7,1.6,1
						c1,0.7,2.1,1.4,3.2,2c2.3,1.4,4.6,2.9,6.9,4.4c3.6-2.2,7.2-4.4,10.1-6.2c1.5-0.9,2.7-1.7,3.3-2.1c-0.6-0.1-1.4,0.7-2.1,0.5
						c0.6-0.8,1.3-0.6,1.4-1.2c0.8,0.5,1.9-0.9,3-0.6l0-0.6l0.6,0c3.3-2.7,0.7-0.7,3.9-2.6c1.8-1.2,2.3-2.3,3.5-2.7
						c-0.2,0.1-0.7,0.1-0.3-0.3c0.3,0.3,1.1-1,1.6-0.8c0.4-0.3,2-1.2,1.2-1.4c0.2,0,0.7-0.1,1-0.2c0.2-0.1,0.2,0,0.2,0
						c0,0,0,0,0,0.1c0,0,0,0,0,0c0,0-0.1,0.1-0.1,0.1c0,0,0.1-0.1,0.1-0.1l0,0c0,0,0,0,0,0c0,0,0,0,0-0.1l-0.1-0.1
						c0.2-0.2,0.4,0.2,0.4-0.4l-0.1-0.2c0.1-0.1,0.2-0.2,0.3,0.1c0,0.1,0,0.2,0,0.4l0,0l-0.1,0.2c0,0,0,0,0.1-0.1
						c0.1,0,0.2,0,0.4-0.2l-0.1-0.1c0.1-0.1,0.3-0.2,0.5-0.2c0,0,0,0,0.1,0l0.2,0.1c0.1,0.1,0.3,0.1,0.4,0.2
						c0.3,0.1,0.6,0.3,0.9,0.5c0.6,0.3,1.3,0.6,2,1c2.6,1.3,5.3,2.6,6.2,2.7L97,23.2l1.5,0.5c-0.1-0.1-1.4,0.9-1.4,0.7
						c0.9,0.6,3.1,1.9,5.8,3.5c1.5,0.9,3.2,1.9,4.8,2.9c2.4,1.5,4.8,2.9,7,4.3c2.2-1.4,4.3-2.6,5.9-3.7c0.8-0.5,1.6-0.9,2.2-1.3
						c0.3-0.2,0.5-0.3,0.7-0.4c0.2-0.1,0.3-0.1,0.4-0.2c1.2-0.4,0.6,0.5,0.6,0.6c1.2-0.9,0.3-0.7,1.4-1.4c0.3-0.1,0.1,0.3,0,0.5
						c0.4-0.3,0.9-0.5,0.9-0.7c-0.7,0.2-0.7-0.4-1.2-0.6l1.4-0.8l0.1,0.3c0.3-0.2,0.3-1.3,1.7-2c2.3-1.3,4.7-2.9,7-4.2
						c0.1,0.2-0.3,0.6-0.7,1c0.3-0.2,0.7-0.5,1.1-0.6c-0.7,0,0.8-0.8,0.3-0.7c1.2-1.8,3.8-2.4,4.9-3.8c-0.3-0.7-3.9-13.3-4.4-14.1
						c0.5-0.3,0.9-0.5,1.1-0.6c-0.2-0.1-1.2,0.4-1.6,0.8l0.2,0.5c-1,0.8-0.4-0.1-1.5,0.6c-0.3-0.3,0.7-1,1.5-1.6
						c-0.8,0.4-1.7,0.7-1.8,1.2c-0.8,0.3-0.2-0.5-1.2-0.1c-0.6,0.5-1.2,1.3-2,1.6l0-0.1c-2,0.7-2.4,2.2-4.2,2.8l0.1-0.2
						c-0.7,0.2-1.6,1.1-2.8,1.5c0.3-0.1,0.7,0,0.2,0.4c-1.3,0.5-2,1.2-3,1.5l-0.6,0.8c-1,0.6-2.6,1.6-4.6,2.9c-0.5,0.3-1,0.7-1.6,1
						l-0.2,0.1c0,0,0,0,0,0l0,0l-0.1,0.1c-0.1,0.1-0.2,0.2-0.3,0.3c-0.1,0-0.2-0.1-0.4-0.1l-0.1,0c0,0,0,0,0,0l-0.2-0.1l-0.5-0.3
						c-0.6-0.4-1.2-0.7-1.8-1.1c-2.3-1.4-4.3-2.5-5.4-3.2l0.2,0c-1.9-1.1-4.3-2.6-7-4.2c-4-2.5-8.4-5.1-12.7-7.7
						c-1.8,1.2-3.7,2.3-5.4,3.5c-0.9,0.6-1.7,1.1-2.6,1.7c-0.4,0.3-0.8,0.5-1.3,0.8c-0.2,0.2-0.5,0.3-0.7,0.5
						c-1.7,1.2-3.3,2.2-4.6,3.2c-1.2,0.3-2.5,1.2-3.6,1.8c0.7-0.2,0.6,0.1,0.2,0.4c-3.2,1.9-0.1,0.4-3.2,2.5
						c-0.9,0.6-2.4,1.6-4.3,2.8c-0.4,0.2-0.8,0.5-1.2,0.8c-0.1,0.1-0.3,0.2-0.4,0.2c-0.3,0.2-0.5,0.3-0.8,0.4
						c-0.3-0.2-0.5-0.4-0.8-0.6c-0.1-0.1-0.2-0.2-0.3-0.3c-0.4-0.3-0.9-0.6-1.3-0.9c-1.8-1.2-3.3-2.3-4.1-2.9c-2.1-0.6-4-2.3-6-3.1
						l0.2,0c-0.8-0.4-2.7-1.6-5-3.1c-0.6-0.4-1.1-0.7-1.7-1.1c-1-0.7-2.1-1.3-3.1-2c-2.1-1.3-4.1-2.6-5.9-3.7
						c-2.2,1.4-4,2.5-4.9,3.1l0.5-0.2c-1.6,1.2-2.3,1.6-3,1.8c-0.3,0.1-0.7,0.3-1.1,0.4c-0.2,0.1-0.4,0.2-0.7,0.3
						c-0.2,0.1-0.3,0.1-0.5,0.2c0.5,0.4-0.9,1.7-1.5,2.2l-0.1-0.1c-0.9,0.7-2.7,2.5-4.2,3.5l-0.1-0.3c-1.1,1.1-3.6,2.5-4.5,3.1
						c-2.2,1.2-5.7,2.7-8.3,4.8l-2.3,0.3L0,20c0,0,3.5,12.2,8.6,12.1l0.1,0.3L9.4,32c1-0.4,1.2-1,1.3-0.7L9.5,32
						c0.9-0.5,0.4,0.1,0.2,0.5c0.4-0.2,0.8-0.4,1.1-0.5c0.1-0.2-0.2,0-0.4,0c0.4-0.4,0.9-1.1,1.6-1.3c0.9-0.5,0.4,0.5,1.4-0.2
						c5.7-3.2,11.3-6.2,16.9-9.8c0.2,0,0.1,0.1-0.1,0.3c0.6-0.4,0.4-0.3,0.4-0.4c0,0,0,0,0-0.1c0,0,0.1-0.1,0.1-0.2
						c0,0.2,0,0.4,0,0.6c0,0,0,0,0-0.1c0-0.1,0.1-0.2,0.1-0.2c-0.2-0.1,0.6,0.4,1,0.6c0.5,0.3,0.9,0.6,1.3,0.8
						C34,22.6,34.5,22.9,34.5,23z"/>
				</g>
			</g>
		</g>
	</g>
</g>
<g>
	<g>
		<g>
			<g>
				<g>
					<path fill="#61A9B9" d="M4.7,28.7c0.5-0.2,1.2-0.6,2-1C6,27.9,5.4,28.2,4.7,28.7z"/>
					<polygon fill="#61A9B9" points="6.6,27.6 6.7,27.6 6.6,27.6 					"/>
					<path fill="#61A9B9" d="M140.6,7.7c-0.2,0.1-0.4,0.2-0.6,0.4C140.2,8,140.4,7.8,140.6,7.7z"/>
					<path fill="#61A9B9" d="M38,17.4l0.2-0.1c1.7,1,0.4,0.5,1.9,1.4c0.7,0.1,2.6,1.6,3.2,1.8c0,0,0.7,0.5,0.6,0.5
						c0.3,0,0.8,0.5,1.3,0.7c0.2,0.1-0.1-0.1-0.2-0.2l1.1,0.6c0.4,0.3,0.5,0.4,0,0.2c1.8,1.1,7.4,4.7,12.7,8
						c2.4-1.5,4.7-2.9,6.6-4.1c1.5-0.9,2.7-1.7,3.3-2.1c-0.5,0.2-1.4,0.8-1.8,0.9c0.8-0.6,1.2-0.7,1.5-1c0.4,0,1.8-1.1,2.6-1.2
						l0.2-0.3l0.5-0.2c3.5-2.3,0.8-0.6,4-2.5c1.8-1.2,2.6-1.9,3.6-2.4c-0.2,0.1-0.6,0.3-0.1-0.1c0.1,0.1,1.2-0.9,1.5-0.9
						c0.5-0.3,2-1.2,1.4-1.1c0.3-0.1,1.7-0.9,0.9-0.3c0.5-0.3,0.9-0.5,1.2-0.8l-0.6,0.3c0.8-0.5,1.4-0.8,1.9-1.1
						c0.3-0.2,0.5-0.3,0.7-0.5c0.1-0.1,0.2-0.2,0.4-0.2c0.1-0.1,0-0.1,0.1-0.1c0,0,0,0-0.1,0c-0.1,0-0.3,0.1-0.3,0.1
						c0.1-0.1,0.2-0.1,0.3-0.2c0,0,0.1,0,0.1,0c0.1,0,0.1,0,0.1,0c0,0,0,0.1,0,0.1l0,0l-0.1,0.1c0,0,0,0,0.1,0c0.1,0,0.1,0,0.2,0.1
						c0.5,0.3,1,0.6,1.5,0.9L88,13.4c1.7,0.9,10.2,6,11.8,6.7l-0.6-0.5l1.3,0.7c-0.2-0.1-0.9,0-1-0.1c2,1.2,9.5,5.8,15,9.2
						c1.7-1.1,3.3-2,4.5-2.8c1-0.6,1.7-1,2.2-1.3c1.1-0.6,0.3,0.1,0.3,0.1c1.2-0.8,0.5-0.5,1.5-1.1c0.3-0.2,0,0.1-0.2,0.2
						c0.5-0.3,0.9-0.5,0.9-0.6c-0.6,0.3-0.4,0-0.8,0.1l1.4-0.8l0,0.1c0.3-0.2,0.6-0.7,2-1.5c2.3-1.4,4.7-2.9,7-4.3
						c0,0.1-0.5,0.4-0.9,0.7c0.3-0.2,0.8-0.5,1.1-0.6c-0.6,0.2,0.9-0.7,0.5-0.4c1.5-1.3,3.8-2.4,5.2-3.4c0-0.3,1-5.4,0.9-5.6
						c0.5-0.3,0.9-0.6,1.1-0.6c-0.2,0-1.1,0.5-1.5,0.9l0,0.2c-1.1,0.7-0.3,0.1-1.4,0.8c-0.1-0.1,0.8-0.7,1.7-1.2
						c-0.8,0.5-1.6,0.9-1.9,1.2c-0.8,0.4,0-0.2-0.9,0.3c-0.6,0.4-1.4,1-2.1,1.4l0,0c-1.8,1-2.6,1.8-4.3,2.7l0.2-0.1
						c-0.6,0.3-1.7,1.1-2.7,1.6c0.3-0.2,0.6-0.2,0,0.2c-1.2,0.7-2,1.2-2.9,1.7l-0.8,0.6c-1.7,1.1-5.7,3.6-10,6.3
						C110,21.1,105,18,103,16.8l0.2,0.1c-4-2.5-10.5-6.4-16.5-10.1c-2.4,1.5-4.8,3-7,4.4c-1.8,1.1-3.3,2.1-4.7,3
						c-1.1,0.5-2.4,1.4-3.5,2c0.6-0.3,0.5-0.1,0,0.2c-3.2,2-0.2,0.2-3.4,2.2c-0.9,0.6-2.4,1.6-4.3,2.7c-0.9,0.6-1.9,1.2-3,1.9
						c-0.7,0.4-1.4,0.8-2.1,1.3c-1.8-1.2-3.6-2.3-5.2-3.3c-1.9-1.2-3.4-2.2-4.2-2.7c-1.9-0.9-4-2.4-5.8-3.4l0.2,0.1
						c-0.7-0.4-2.7-1.6-5-3.1c-2.7-1.7-5.7-3.6-8-5c-1.1,0.7-2,1.3-2.8,1.8c-0.5,0.3-0.8,0.5-1.1,0.7l0.3-0.2
						c-1.8,1.3-1.7,0.9-3.2,1.8c0.3,0-1.3,1.1-1.9,1.5l0-0.1c-0.9,0.6-2.9,2.1-4.4,3l0-0.1c-1.2,0.9-3.6,2.3-4.6,2.9
						c-2.1,1.3-5.5,3.1-8.2,5l-2,0.9l-0.2,0.2c0,0-1,4.9,3.1,3.3l0,0.1l0.7-0.5c0.9-0.5,1.3-0.9,1.2-0.7l-1.2,0.7
						c0.9-0.5,0.3-0.1,0,0.2C7,27.4,7.4,27.2,7.7,27c0.2-0.1-0.2,0-0.3,0.1c0.5-0.3,1.1-0.8,1.7-1.1c0.9-0.6,0.1,0.1,1.2-0.5
						c5.6-3.4,11.1-6.6,16.7-10.1c0.2,0,0,0.1-0.2,0.2c0.8-0.5,1.6-1,2.4-1.5c0.7-0.4,1.9-1.2,1.6-1c0,0,0,0.1,0,0.2c0,0,0,0,0,0
						c0,0,0,0,0,0l0,0l0,0c0,0,0,0,0,0l0.2,0.1c0.8,0.5,1.9,1.1,2.9,1.8C36,16.2,37.9,17.4,38,17.4z"/>
				</g>
			</g>
		</g>
	</g>
</g>
</svg>
