<?xml version="1.0" encoding="utf-8"?>
<!-- Generator: Adobe Illustrator 18.1.1, SVG Export Plug-In . SVG Version: 6.00 Build 0)  -->
<svg version="1.1" id="Layer_1" xmlns="http://www.w3.org/2000/svg" xmlns:xlink="http://www.w3.org/1999/xlink" x="0px" y="0px"
	 viewBox="0 0 198 37.2" enable-background="new 0 0 198 37.2" xml:space="preserve">
<g>
	<path fill="#65C9B5" d="M190.7,3.9c-0.8,0-1.9,0.7-2.9,1.2C188.7,4.9,189.6,4.6,190.7,3.9z"/>
	<path fill="#65C9B5" d="M187.7,5.1C187.7,5.1,187.7,5.1,187.7,5.1C187.7,5.1,187.8,5.1,187.7,5.1C187.8,5.1,187.7,5.1,187.7,5.1z"
		/>
	<path fill="#65C9B5" d="M5.4,34.5c0.2-0.2,0.5-0.3,0.8-0.5C5.9,34.2,5.6,34.3,5.4,34.5z"/>
	<path fill="#65C9B5" d="M148.9,4.8l-0.6,0.4c-2.2-1.4-2.5-1.8-2.7-2.1c-0.1-0.2-0.2-0.3-0.6-0.6c-0.3-0.4-0.9-0.5-2-0.8
		c-0.5,0.1-1.1,0-1.9-0.2c-0.4-0.1-0.8-0.2-1.2-0.3c-0.4-0.2-0.9,0-1.3,0.1c-1.7,0.4-3.5,0.8-4.1,1.3c0-0.1-2,1.1-2,0.8
		c-0.2,0.4-0.7,0.8-1.4,1.1c-0.3,0.2-0.6,0.4-1,0.6l-0.5,0.3c-0.1,0.1-0.2,0.1-0.2,0.2c-0.1,0.1,0,0.1,0.1,0.1c0.1,0,0.1,0,0.2-0.1
		l0.1,0c0.1,0,0.1,0,0.2,0c-0.1,0.1-0.4,0.3-0.8,0.6c-0.4,0.3-0.7,0.5-0.7,0.5c-0.7,0.2-1,0.1-0.4-0.4c-1.5,0.9-5.1,2.9-9.2,5.4
		c-2.1,1.2-4.2,2.5-6.4,3.8l-0.8,0.5l-0.2,0.1h0l0,0l0,0l0,0c0,0,0,0,0,0c0,0,0,0,0,0c-0.4-0.2-0.8-0.5-1.1-0.6
		c0.1,0.2,0.2,0.3,0.4,0.5c0.1,0.1,0.2,0.2,0.3,0.2l0.2,0.1c0.1,0,0,0,0,0c0,0.1,0,0.1-0.1,0.4c-0.1,0.1-0.1,0.1-0.2,0
		c-0.3-0.2-0.6-0.4-0.9-0.4c0-1-2.4-1.7-2.8-3l-0.6,0.2l-0.4-0.6c-5.3-2.7-1.3-0.5-5.7-3.4c-2.6-1.5-4.2-1.7-5.5-2.8
		c0.2,0.1,0.6,0.7-0.1,0.4c0.1-0.2-0.4-0.4-0.9-0.7c-0.3-0.1-0.5-0.2-0.7-0.4c-0.1-0.1-0.2-0.1-0.3-0.2c0-0.1-0.2-0.2-0.2-0.3
		c-1.3-0.7-5.2-3.2-4-1.8c-0.5-0.7-4.1-3-1.9-2c-1.2-0.8-2.4-1.6-3.2-2l1.5,1.1c-0.6-0.4-1.1-0.7-1.6-1c-3,1.8-5.1,2.8-7.1,4.6
		L78,4.1c-1.2,0.7-2.2,1.4-3.2,1.9c-0.1,0.1-0.2,0.1-0.3,0.2c-0.1,0.1-0.2,0.1-0.3,0.1c-0.1,0-0.2,0.1-0.4,0.1
		c-0.2,0.1-0.5,0.1-0.7,0c0,0,0.3-0.2,0.6-0.5c0.1-0.1,0.1-0.1,0.3-0.2c0.1-0.1,0.3-0.2,0.4-0.3c0.2-0.2,0.4-0.3,0.4-0.3
		C74.2,5.7,73.6,6,73,6.4c-0.4,0.3-0.8,0.6-1.2,0.8C71,7.8,70.2,8.3,69.4,9l0.6-0.4c-1,0.9-4.4,3.4-7.7,5.8
		c-1.7,1.2-3.3,2.4-4.7,3.4c-0.2,0.1-0.3,0.3-0.5,0.4c-0.1,0.1-0.1,0.1-0.1,0.1L57,18.4c-0.1,0.1-0.1,0.2-0.2,0.3
		c-0.1,0.2-0.2,0.3-0.3,0.5c0,0,0.5,0.2,0.5,0.2c0,0-0.6,0.8-0.6,0.8c0.1-0.1,0-1.7,0-1.6c-0.2,0.1-0.4,0.3-0.8,0.5
		c-0.2-0.1-0.5-0.3-0.8-0.5c-0.4-0.2-0.3-0.1-1.8-1.1c-2.4-1.5-5-3-7.5-4.5c-2.5-1.5-4.8-3-6.7-4.2c-1-0.6-1.8-1.2-2.6-1.6
		c-1.2-0.8-2.2-1.4-2.8-1.8c-2.4-1.8-0.2-1-0.2-1c-3.2-1.8-1.5-0.3-4.1-2c-0.7-0.5,0.2-0.3,0.6-0.1c-0.6-0.3-1.1-0.7-1.6-1
		c-0.2-0.1-0.4-0.2-0.5-0.3c-0.1,0.1-0.2,0.2-0.2,0.3c0.1,0,0.2-0.1,0.2-0.1c0.1,0.1,0.1,0.1,0.2,0.2c0.1,0.1,0.2,0.2,0.3,0.3
		c0.2,0.2,0.2,0.3,0.3,0.5c0.1,0.3,0.1,0.6,0.4,1c0,0-0.2-0.1-0.5-0.3c-0.1-0.1-0.3-0.2-0.5-0.3c0,0-0.1-0.1-0.1-0.1l-0.1,0.1
		l-0.3,0.2c-0.8,0.5-1.6,1-1.6,1l0.1-0.5c-0.4,0.2-0.8,0.8-1.5,1.5c-0.7,0.7-1.7,1.5-3.2,2.4c-1,0.6-2,1.2-3.1,1.8
		c-0.8,0.5-1.6,1-2.5,1.5c-1.6,1-3.3,2.1-4.9,3c-0.1-0.2,0.5-0.7,1.1-1.3c-0.4,0.3-1.1,0.7-1.5,0.8c1-0.2-1.2,1-0.5,0.8
		c-1.9,2.2-5.3,3.4-7,5.1C3,19.6,5.4,32.9,5.9,33.7c-0.6,0.4-1.3,0.8-1.5,0.8c0.3,0.1,1.6-0.6,2.2-1.1l-0.1-0.5c1.4-1.1,0.5,0,2-0.9
		c0.3,0.3-1,1.2-2.2,2c1.1-0.6,2.4-1.1,2.6-1.7c1.1-0.5,0.1,0.5,1.5-0.1c0.8-0.6,1.8-1.7,2.9-2.1l0,0.1c2.7-1.2,3.4-2.9,5.9-3.9
		l-0.2,0.3c0.9-0.3,2.3-1.5,3.9-2.2c-0.5,0.2-1,0.2-0.1-0.4c1.8-0.8,2.8-1.7,4.1-2.2c0,0,1.1-1.1,0.7-0.9c0,0,0.1-0.1,0.2-0.1
		c0,0,0.1-0.1,0.1-0.1c0,0,0.1,0,0.1,0c0.1,0,0.1,0,0.2,0.1l0,0l0,0l0,0c0,0,0,0,0.1,0c0.4,0.2,0.8,0.5,1.2,0.7c1.6,1,3.3,2,5,3
		c3.4,2,6.8,4.1,9.8,5.8c2.2,1.3,4.2,2.5,5.9,3.6c2.2,1.4,4.1,2.5,5.6,3.4c1.7-1,2.1-1.3,2.6-1.6L57.9,36c4.1-2.6,9.7-6.1,15.7-10
		c2.4-1.5,4.8-3.1,7.2-4.6c0.6-0.4,1.2-0.8,1.8-1.2l0.2-0.1l0,0l0.1,0l0.1-0.1c0.2-0.1,0.3-0.3,0.5-0.4c0.3,0.1,0.5,0.2,0.8,0.3
		c1.5,0.9,2.9,1.6,4.1,2.3c1.2,1.2,3.2,2.3,4.6,3.3c-0.7-0.6-0.3-0.7,0.3-0.3c4.4,2.8,0.4,0,5,2.6c0.9,0.5,2.2,1.3,3.8,2.2
		c2.7,1.7,5.8,3.6,9.2,5.7c3.1-1.9,6.5-4,9.9-6c2.1-1.2,4.1-2.5,6-3.6c3.8-2.3,7.1-4.2,8.7-5c0.5-0.5,1.2-1,1.8-1.4l0.5-0.3l0.1-0.1
		l0.2-0.2c0.2-0.1,0.3-0.2,0.5-0.3c0.1-0.1,0.2-0.3,0.2-0.4c0,0,0.1-0.3,0.1-0.3h0.1l-0.1,0.3c0.2,0,0.5,0.3,0.9,0.6
		c1.6,1,3.5,2.3,5.4,3.5c4.3,2.8,8.7,5.6,10.3,6.5l-0.4-0.3c1.4,0.7,1.9,1.1,2.4,1.5l0.2,0.2c0,0.1,0.1,0.1,0.2,0.2
		c0.2,0.2,0.4,0.4,0.7,0.6c0.5,0.4,1.1,0.9,2.1,1.5c-0.1-0.5,0.9-0.2,2,0.4c1.2,0.5,2.5,1.2,3.2,1.6l-0.1,0.1c0.3,0.1,0.6,0.3,1,0.5
		c1.2-0.8,2.8-2,4.6-3.3c0.8-0.6,1.7-1.2,2.6-1.8c0.7-0.5,1.3-0.9,1.9-1.3l0.1,0.4c1.6-1.4,5-3.4,6.3-4.2c3-1.7,7.9-4,11.6-6.8
		l3.1-0.7l0.3-0.3c0,0-2.3-12.9-8.9-11.9L189,4.9l-1,0.7c-1.3,0.6-1.7,1.3-1.8,1l1.7-1c-1.3,0.7-0.5,0-0.2-0.5
		c-0.5,0.3-1.1,0.6-1.5,0.7c-0.2,0.3,0.3,0,0.5,0c-0.6,0.5-1.4,1.4-2.3,1.7c-1.3,0.8-0.4-0.4-1.9,0.4c-3.3,1.9-6.6,3.8-9.9,5.7
		c-1.6,0.9-3.2,1.9-4.8,2.8c-0.1,0-0.2,0-0.3,0.1c-0.1-0.1-0.1-0.1-0.2-0.1c0-0.1,0.1-0.1,0.1-0.2c0,0,0,0,0,0l0,0l0,0
		c0,0-0.1-0.1-0.2-0.1c-0.6-0.3-1.1-0.7-1.7-1c-1.1-0.7-2.2-1.3-3.3-1.9c-0.5-0.5-0.6-0.8-0.7-1c0.1,0.2-2.9-1.6-6-3.4
		c-1.5-0.9-3.1-1.9-4.3-2.6c-0.6-0.4-1.1-0.7-1.4-0.9c-0.2-0.1-0.4-0.3-0.5-0.4C149,4.9,148.9,4.8,148.9,4.8z"/>
</g>
<g>
	<path fill="#61A9B9" d="M0,27.5c0,0.6,0.2,0.1,0.5-0.2L0,27.5z"/>
	<path fill="#61A9B9" d="M0.5,27.3l0.4-0.1C0.7,27.2,0.6,27.3,0.5,27.3z"/>
	<path fill="#61A9B9" d="M3.7,25.8c-0.5,0.7-1.6,0.8-1.7,1.6C2.8,27.2,3.8,26.4,3.7,25.8z"/>
	<polygon fill="#61A9B9" points="2.5,26.1 2.5,26.4 2.9,25.6 	"/>
	<polygon fill="#61A9B9" points="1.9,26.1 2,26.2 2.8,25.3 	"/>
	<path fill="#61A9B9" d="M6.1,24.5L5.5,25c-0.9,0,0.1-0.7-0.4-0.7c-0.9,0.5,0.2,0.9-1,1.5c0.3,0.3,1.7-1.1,1.9-0.4
		C6.9,24.9,5.8,25,6.1,24.5z"/>
	<path fill="#61A9B9" d="M48.5,20c0,0,0,0.1,0.1,0.1C48.6,20.1,48.6,20,48.5,20z"/>
	<path fill="#61A9B9" d="M57.2,23c0.2,0,0.4-0.1,0.5-0.2c-0.1,0-0.2,0-0.3,0L57.2,23z"/>
	<path fill="#61A9B9" d="M40.8,16.6c-0.1-0.2-0.3-0.3-0.4-0.4C40.5,16.3,40.6,16.5,40.8,16.6z"/>
	<path fill="#61A9B9" d="M113.1,27.5c0,0.1,0,0.1,0,0.2c0,0,0,0,0,0l0.1-0.3L113.1,27.5z"/>
	<path fill="#61A9B9" d="M69.5,14.3c0.2-0.1,0.3-0.2,0.5-0.4C69.6,14.1,69.5,14.2,69.5,14.3z"/>
	<path fill="#61A9B9" d="M36.6,14.1c0.1,0,0.1,0.1,0.2,0.1C36.8,14.1,36.7,14.1,36.6,14.1L36.6,14.1C36.6,14.1,36.6,14.1,36.6,14.1z
		"/>
	<path fill="#61A9B9" d="M55.6,22.9c0,0.1,0,0.1,0.1,0.1C55.6,23,55.6,22.9,55.6,22.9z"/>
	<path fill="#61A9B9" d="M17.1,18.5c0.2-0.1,0.4-0.2,0.5-0.4C17.4,18.2,17.2,18.2,17.1,18.5z"/>
	<path fill="#61A9B9" d="M21.1,15.9C21.1,15.9,21.1,15.9,21.1,15.9C21.2,16,21.2,16,21.1,15.9z"/>
	<path fill="#61A9B9" d="M23.7,14.4L23.7,14.4C23.8,14.4,23.8,14.4,23.7,14.4z"/>
	<path fill="#61A9B9" d="M17.5,18.2c0.5,0,1,0.6,1-0.4l-0.1,0c0.4,0,0.6-0.5,0.9-0.7c-0.1-0.1-0.1-0.1-0.2-0.1
		c-0.2,0.1-0.4,0.2-0.7,0.3C17.8,17.3,17.8,17.8,17.5,18.2z"/>
	<path fill="#61A9B9" d="M48.4,20.2C48.5,20,48.1,19.9,48.4,20.2L48.4,20.2z"/>
	<path fill="#61A9B9" d="M44.6,18.5c0.1,0.1,0.2,0.2,0.3,0.2C44.8,18.7,44.7,18.6,44.6,18.5z"/>
	<path fill="#61A9B9" d="M31.4,10.1C31.4,10.1,31.5,10.2,31.4,10.1C31.5,10.1,31.5,10.1,31.4,10.1z"/>
	<path fill="#61A9B9" d="M45.2,19c-0.1-0.1-0.2-0.1-0.3-0.2C45,18.8,45.1,18.9,45.2,19z"/>
	<path fill="#61A9B9" d="M35.2,13C35.2,13,35.2,13,35.2,13C35.2,13,35.2,13,35.2,13z"/>
	<path fill="#61A9B9" d="M167,31.4c-0.5-0.2-0.8-0.7-1.2-1c-1.2-0.1,2.2,1.4,0.6,1c0.4,0.3,0.8,0.4,1.1,0.5c0,0,0.1-0.1,0.1-0.1
		l-0.1,0l-0.6-0.9C166.1,30.5,167.6,31.4,167,31.4z"/>
	<path fill="#61A9B9" d="M117.2,26.2l-0.1,0c0.2,0.2,0.2,0.3,0.7,0.1c0.2-0.5-0.7-0.7-0.3-1.4c-0.1,0.1-0.3,0.2-0.5,0.3
		C117.4,25.4,117.3,25.8,117.2,26.2z"/>
	<path fill="#61A9B9" d="M117,25.2C116.9,25.2,116.9,25.2,117,25.2c-0.1,0-0.1-0.1-0.2-0.1c-0.1,0.1-0.2,0.1-0.3,0.1
		C116.6,25.3,116.8,25.3,117,25.2z"/>
	<path fill="#61A9B9" d="M156.6,24.6c-0.1-0.1-0.2-0.2-0.3-0.2C156.4,24.6,156.5,24.6,156.6,24.6z"/>
	<path fill="#61A9B9" d="M72.2,20.6C72.1,20.7,72,20.8,72,21C72.1,20.8,72.2,20.7,72.2,20.6z"/>
	<path fill="#61A9B9" d="M109.2,27.7c-0.1-0.1-0.2-0.2-0.4-0.3c-0.1,0-0.2-0.1-0.3-0.1L109.2,27.7z"/>
	<path fill="#61A9B9" d="M128.9,12.3c0.1,0.7,0.1-0.1,0.8-0.1l0.2-0.5C129.5,11.8,129.2,12.1,128.9,12.3z"/>
	<path fill="#61A9B9" d="M167.7,31.8C167.7,31.8,167.7,31.7,167.7,31.8C167.6,31.7,167.6,31.8,167.7,31.8L167.7,31.8z"/>
	<path fill="#61A9B9" d="M145.1,9c0.1,0.1,0.1,0.1,0.2,0.2C145.2,9.1,145.2,9.1,145.1,9z"/>
	<path fill="#61A9B9" d="M114.4,26.6l-1.9,1.1l0.6-0.2c0.1-0.2,0.4-0.3,0.7-0.5C114,26.9,114.4,26.8,114.4,26.6z"/>
	<path fill="#61A9B9" d="M121.9,16.2l-0.3-0.2c-1.2,1.6-3.6,1.8-4.2,3.5c-2.6,0.1-0.7,1.8-3,1.9l0.2,0.1c-0.8,0.5-1.6,0.9-2.4,1.4
		c-0.1,0.1-0.1,0.1-0.2,0.1l-0.1,0l-0.1,0l-0.2,0.1l-0.2-0.3l0-0.1l0,0c0,0-0.1-0.1-0.2-0.1l-0.8-0.5c-1.1-0.7-2.1-1.4-3.2-2.1
		c-2.1-1.3-4.2-2.6-6.3-3.6l0.1-0.2c-2.5-1.7-5-3.3-7.6-4.9c-3.3-2-6.5-4-9.8-6c-2.5,1.5-4.9,3.1-7.4,4.6c-1.8,1.1-3.5,2.2-5.3,3.3
		c-0.7,0.7,0.1,0.9-0.4,1.6c-0.3,0.2-1,0.6-1.2,0.4c0.5-0.5,0-0.5,0.1-0.8c-1,0.6-2.4,1.1-3.1,2l0.9-0.1c-0.2,0.4-0.8,0.6-1.2,0.8
		c0-0.3-0.7-0.4-0.5-0.6c-1.3,2-1.7,0.5-3,1.8c0.2,0.9-1.4,2.7-2.3,4.1l-0.8,0.2c0.9-0.5-0.4-0.5,0.8-1.2c-1.1,0.4-1.7,1.2-2.6,1.6
		c0.3,0.1,0.4,0.4,0.1,0.7c-0.3,0.1-0.5,0.1-0.7,0.1c-0.1,0-0.2,0-0.3,0c-0.1,0-0.1,0-0.2,0c0,0-0.1,0-0.1,0c0,0,0,0,0-0.1
		c0,0,0-0.1,0.1-0.2c0.1-0.2,0.2-0.3,0.2-0.3c-0.7,0-0.4,0.4-0.6,0.5c-0.2-0.3-0.4-0.3-0.4-0.7c0,0.2-0.1,0.3-0.1,0.4
		c-0.1,0.1-0.1-0.1-0.4,0.1c0.1,0.3,0,0.4,0,0.5C55.2,23.9,55,24,55,24.1l0.5,0.1c-0.6-0.6,0.2,0.1,0.2-0.7c0,0,0,0,0,0.1
		c0,0.1,0,0.3,0,0.4c-0.1,0.3-0.3,0.5,0,0.6c0,0,0,0,0.1,0c0,0,0,0.1-0.1,0.1c-0.3,0-0.5-0.2-0.8-0.3c-0.1,0-0.2-0.1-0.4-0.1
		c0,0-0.1,0-0.1,0c-0.1,0-0.2-0.1-0.2-0.1c-0.2-0.1-0.3-0.1-0.5-0.2c0.9,0.4-0.4,0.2,0,0.7c-1.1-0.6-0.2-0.4-0.3-0.9
		c-0.6-0.3-0.6-0.8-1.4-0.7c-0.9-0.7,0.4-0.3,0-0.8c0.6-0.1,2.4,2.1,2.8,0.8c0.1,0.1,0.3,0.2,0.4,0.1c0.1,0,0.1-0.1,0.2-0.1
		c0.1-0.1,0.2-0.2,0.2-0.1c0-0.1,0-0.3,0-0.4l0-0.1c0,0,0,0,0,0l-0.1-0.1c-0.2-0.1-0.4-0.2-0.7-0.3l-0.4,0.6c-0.6-0.3-1,0-1.4-0.3
		c0.3-0.1,0.1-0.6-0.4-0.8c0.1,0.2,0.3,0.3,0.2,0.4c-0.9-0.5-1.3-0.1-2.4-0.6c0.8,0.7,0.8,1,1.4,1.8c-0.5,0.3-0.6-0.3-1.1-0.5
		c0.1,0,0.2,0,0.1-0.1l-0.6-0.1c-0.9-0.9,0.5-0.6-0.2-1.4c-0.4-0.8-1-0.3-1.3-0.8c0,0.1,0,0.1,0,0.2c-0.1-0.1-0.2-0.1-0.2-0.2
		c0,0,0,0,0,0c-0.6-0.3-1.2-0.7-1.6-0.5c0-0.2-0.5-0.3-0.8-0.3c-0.4-0.1-1.4-0.1-1.5-1c0,0,0,0,0,0c-0.7-0.5-1.1-1-0.8-1.1l-1.1-0.8
		l0.4-0.4C42,15.7,41.9,16,40.9,16c-0.6-0.7-2-1.3-2.6-1.5c-0.1-0.1-0.2-0.1-0.4-0.3l0.3,0.4c-0.8-0.5-0.8-0.2-1.4-0.6
		c0.1,0.1,0.1,0.1-0.2-0.1c-0.1-0.1-0.2-0.1-0.3-0.2c0.1,0,0.2,0.1,0.3,0.1l0-0.2c-0.4-0.9-1.2-0.3-1.7-0.9c0.1,0,0.2,0.1,0.3,0.1
		c-0.3-0.4-0.5-1.3-0.9-1.1c-0.1-0.1-0.2-0.1-0.4-0.1l-0.2-0.2c0.1,0.1,0.2,0.2,0.2,0.2c-0.3,0-0.5,0.1-0.5,0l-0.9-0.7
		c-0.1-0.2-0.4-0.3-0.7-0.4l-0.1-0.3c-0.4-0.2-0.3-0.3-0.2-0.3c-0.1-0.1-0.2-0.3-0.3-0.4c-0.1-0.1-0.3-0.3-0.4-0.4
		c-0.3-0.2-0.6-0.4-1-0.6c-0.6-0.3-1.2-0.5-2-1c-0.3,0.1-0.6,0.2-0.9,0.3c-0.3,0.6,0.5,0.3,0.6,0.5c-0.3,0.5-1.2,1.4-1.5,1.8
		c-0.2,0-0.5,0-0.9,0.1c-0.3,0.1-0.7,0.1-1,0.2c-0.6,0.1-1.2,0.1-1.2-0.3c-1.1,0.6,0.6,0.2,0.2,0.7l-0.1,0.1c0.4-0.2,0.9-0.1,1.2,0
		c0.3,0.3-0.6,1-1,1.1l-0.1-0.6c-0.9,0.8-0.3,1.4-0.6,2.3c-0.9,0.3-0.7-0.4-1.2-0.7l-0.8,0.7l-0.2-0.4c-0.5,0.4-0.4,0.9-1.3,1.2
		c0.4-0.7-1.4,0.4-0.9-0.5c-0.5,0.1-0.2,0.9-0.7,0.6c-0.1,0.6,0.5-0.1,0.8-0.1c0.5,0.4-0.8,0.8-1.2,1.3c-0.2-0.3,0.1-0.5-0.6-0.4
		c0,0.3-0.3,0.7-0.8,0.7c0.2,0.4-0.6,0.5-1,0.7c0.4-0.2,1.2-0.3,1.1,0.2c-0.2,0.3-0.4,0.6-1.1,0.9l0.6-0.1c-0.3,0.9-1.2,0.2-1.9,0.9
		c0.2-0.4,0.4-0.6,0.6-1c-0.3,0.4-0.9,1.1-1.4,1.7l-1-0.1c0.1,0.3-0.8,0.5-0.6,0.8c-1,0.3,0.4-0.9,0.4-1.2c-1.2,0.4-0.5,1.1-1.9,1.2
		l0.1-0.5c-0.4,0.2-0.9,0.8-1.1,0.7c0.1,0.1,0.2,0,0.4-0.2c0.2,0.8-1.3,1.5-0.7,2.1l0.5-0.2c-0.6,0.6-0.9,1.4-1.6,1.5
		c-0.6,0,0-0.7,0.1-1C6.3,23,6.9,23.7,6,24.2c0.5-0.1,0.6,0.2,0.4,0.5C7,24.4,8.1,24,7.7,23.8l-0.2,0c-0.1-0.2,0.1-0.4,0.2-0.6
		c0.6-0.4,0.5,0.1,0.7,0.2c1.2-0.6-0.4-0.8,0.6-1.4l0.2,0.1c0.4-0.5,1.1-1,0.9-1.5c0.7,0.2,1-0.9,1.7-0.9c0.7,1-1.7,1-1.9,1.9
		c0.7-0.1,0,0.7-0.1,1.1l1.4-1.5c0.2,0.1,1,0.3,1.1-0.3l-0.1,0.1c0.6-0.5,0.1-0.8,0.8-1c0.1,0,0.1,0.3,0.1,0.4
		c0.6-0.2,0.3-0.5,0.6-0.8c0.6-0.2,0,0.6,0.5,0.4c0.4-0.8,1-0.5,1.5-0.8c-0.6-0.5,1.6-2.1,0.1-1.9l1-1.2c0.6,0.1-0.3,1.4,0.3,1.6
		l-1,0.6c0.6,0.6,1.8-1.8,3-1.4c0.6-0.3,0.4-0.3,1.6-0.6L20,15.7c0.6-0.2,1,0.1,1.1,0.2c0.3-0.2,0.6-0.4,0.9-0.5
		c0,0.1-0.1,0.3-0.2,0.4c0.6,0.1,0.6-0.1,0.7-0.4c0.1-0.3,0.4-0.5,0.8-0.7L23,15.2c0.2-0.2,0.4-0.4,0.3-0.5c0.1-0.1,0.3-0.2,0.4-0.3
		c-0.2-0.1-0.6-0.3-1.2-0.2c1.4-0.5,2.2-1.2,3.6-1.3c0.1,0.2-0.2,0.7-0.1,0.7c0.7-0.3,0.7-0.8,0.5-1.1c0.1-0.1,0.1-0.1,0.2-0.1
		c0.1,0.1,0.3,0.3,0.4,0.3c0,0.1,0.1,0.1,0.2,0.1c0-0.4,0.2-0.6,0.4-0.7c0.2,0.1,0.3,0.2,0.4,0.1c-0.1-0.1-0.3-0.2-0.4-0.3l-0.1,0.1
		l0.1-0.2c0.2-0.3,0.6-0.4,0.8,0c-0.3,0-0.2,0.3-0.1,0.5c0.1,0.2,0.1,0.3-0.3,0.2c0.3,1.1,0.4-0.4,0.9,0.2c0,0,0.1,0.1,0.1,0.2
		c0,0.1,0.2,0.3,0.2,0.3c-0.4,0.3-0.7-0.2-0.7,0l0.2,0.1c-0.3,0.1-0.7-0.2-1.1-0.2c-0.1,0.1-0.2,0.3-0.3,0.4l0.3,0l0.4,0.4
		c0.1,0,0.2,0,0.3,0l0.1,0l0.2,0.1l0.5,0.3c0.6,0.4,1.3,0.7,1.9,1.1c1.3,0.7,2.5,1.4,3.7,1.6l-0.1,0c0.1,0,0.1-0.1,0.2-0.2l0,0.1
		l0.6,0c0.2,0.6,1,1.2,1.5,1.9c-0.3-0.5-0.3-0.5-0.2-0.8c0.3-0.3,0.5-0.4,1.1,0.1c-0.2,0.3-0.6,0-0.2,0.5c-0.2-0.3,0.2-0.3,0.5-0.2
		c0.3,0.4,0.8,0.8,0.7,1.1c-0.2,0-0.3-0.2-0.4-0.3c-0.2,0,0.5,0.7-0.1,0.6l0.7,0.3c0.2,0.5-0.5,0.2-0.4,0.4c1.2,0.5,2.2,0.2,3.3,0.7
		c-0.1,0.1-0.5,0.7-0.4,0.5c0.7,0.7,2,0.4,2.9,0.9c-0.2,0.1-0.5-0.2-0.8-0.3c2.5,1.9,4.7,3.2,6.8,5.4l1-0.2l0.4,0.8
		c1.2,0.9,2.5,1.8,3.7,2.5c0.7-0.4,1.3-0.8,2-1.3l0.9-0.6l0.5-0.3l0.4-0.3c0.7-0.6,1.5-1.2,2.3-1.7c0.8-0.5,0.7,0.1,1.2,0.1
		c1.7-1,1.7-1.9,3.3-3.1c-0.1,0.3-0.2,1.1,0.6,0.7c0-0.3-0.1-0.6,0.4-0.8l-0.1,0.3c0.6,0,0.8-0.5,1.7-0.9c1.5-0.9,2.6-2.2,3.4-3.7
		c1.3-0.7,0.3,0.8,0.6,0.7c-1.1,0.3-0.6,0.5-0.6,0.8c0.4-0.5,0.9-1,1.4-0.7c0.7-0.4,1-0.6,1.5-1.3c-0.2,0.4-0.7,0.3-0.5-0.1
		c0.7-0.2,2-1.2,2.2-0.6c1.3-0.9,2.7-1.7,4.1-2.6c0.7-0.4,1.4-0.8,2.1-1.3l0.6-0.3c0.2,0.1,0.3,0.2,0.5,0.3c0.3-0.2-0.1-0.2,0.1-0.4
		c0.1-0.1,0.2-0.1,0.2,0c0,0,0.2,0.1,0.2,0.2c0.1,0.1,0.2,0.3,0.6,0.4l-0.5,0.1c1,0.7,2.4,0.8,3.5,1.1C88,15.6,89,16.1,88,15.8
		c0.5,0.2,0.1,2.1,0.7,2l0.4-1.8c0.1-0.1,0.7,0.4,0.7,0.2c0.2,0.5,0.5,1.2,0.8,1.4c-0.1,0.4-0.8-0.1-1.2-0.3
		c-0.4,0.6,1.1,1.2,0.2,1.4c0.9,0.4,0.1-0.4,0.7-0.3l0.7,0.6l-0.4-0.6c0.7,0.2,1.2-0.1,1.8,0.7l1.2-0.1c-0.2,0.5,0.6,0.5,0.9,0.9
		l-0.5,0.1c0.6,0.3,0.8,0.6,1,1c-0.6,0.2-0.5-0.4-0.9-0.1l0.6,0.5c0.2-0.3,0.7-0.2,0.3-0.7c0.9-0.1,1.5-0.3,3,0.6c0.4,0.9-1,0-1,0.6
		c1.4,1.2,2.6,0,3.5,0.6c1,0.9,1.2,0.4,2.4,1.1c-0.6,0.1,0.6,0.8,0.6,1.3l-0.7,0c0.4,0.1,0.7,0.5,0.4,0.6c0.2-0.5,1.8,0.5,2.7,0.8
		l0.1-0.5c0.4,0.1,0.8,0.3,1.2,0.5c0.2,0.1,0.4,0.2,0.6,0.3c0.2,0.1,0.4,0.2,0.6,0.4c1.4,0.7,1.2,0.2,2.2,0.2
		c0.4,0.7,0.4,1.2,0.2,1.7c-0.4-0.5-1-0.7-1.6-1.2c-0.4-0.2-1-0.3-1.4-0.5c-0.4-0.1-0.7-0.1-1.1-0.2c-0.7-0.1-1.3-0.3-1.9-0.8
		c-1.1,0.5,0.9,0.4,1.3,1.1c-0.1,0-0.1,0-0.2,0c0.1,0,0.1,0.1,0.1,0.1c-0.5-0.2-1.3-0.5-1.7-0.1c0.8,0.4,1.1-0.5,1.8,0.4
		c0.4,0.1,0.7,0.4,0.9,0.7c0.3,0.4,0.8,0.9,1.1,1.2c1,0.2,1.2-0.6,3,0.6c0,0,0.1,0,0.1,0l-0.1,0.1c-0.2,0-0.5,0.1-0.8,0.1
		c0.3,0.2,0.6,0.4,0.8,0.4c1.2-1,0.5-1.3,2.2-2.3c-0.7,0.3,0.4-0.9-0.8-0.2c0.3-0.3,0.7-0.7,1.1-1c0.2-0.2,0.5-0.3,0.7-0.4
		c0.2-0.1,0.4-0.2,0.6-0.2c0.1-0.2-0.1-0.2-0.1-0.4c-0.5,0.1-0.6,0.3-1,0.6c-0.3,0.3-0.6,0.6-1.1,0.5c0,0-0.5,1.1-0.5,1.1
		c-1,0.3-1-0.2-0.6-0.8c-0.2,0.1-0.3,0.3-0.5,0.3c0,0-0.1-0.1-0.1-0.1c0-0.3,0-0.4,0.1-0.4c0.2-0.2,0.9,0,1-0.7l-0.5,0.4
		c-0.2-0.6,1-1.3,1.6-1.6c0.8-0.2,1.5-0.5,1.8-0.1l-0.8,0.7c0.7,0,1.1-0.9,1.6-1.2c0.1,0,0.1,0,0.2,0c0,0-0.1,0-0.1-0.1
		c0.1-0.1,0.3-0.1,0.4,0c0.5-0.3,1-0.9,1.5-1.1l-0.3-0.3l0.1,0.2c-0.4,0.3-1.2,0.4-1,0c0.8-0.8,1.4-0.3,1.8-0.2
		c0.1,0.7-1,0.6-1.3,1.1c0.6,0.3,1-0.6,2.2-0.8c-0.1,0.8-1.2,0.7-1.1,1.4c0.9-0.4,0.8-0.9,1.8-1.3c0.1,0.3-0.8,0.9-0.5,1.2l0.6-0.2
		c-1.3,0.9,0.7,0.5-0.3,1.3c0.6-0.1,0.4-0.9,1.3-1c-0.3-0.1-1.2-0.2-0.6-0.9l0.9-0.3c0.5,0.1-0.4,1.1,0.2,1l0.7-0.7
		c-0.1-0.1-0.6,0-0.5-0.4c0.6-0.1,0.4-1.1,0.7-1.7c0.4-0.3,0.8-0.4,1.1-0.3c0.8-1.2,2.2-2,2.9-3.1c-0.5,0.8,0.4,0.6,0.9,0.6
		c-0.7,0.6-0.4,1.1-0.2,1.4c0.4-0.4,0.4-1.1,0.1-1.1c0.9-0.3,0.3-0.7,1.2-0.8c0.6-0.1,0.1,0.7,0.4,0.8c0.9-0.5-0.2-0.8,0.9-1.2
		c0,0.1-0.1,0.2,0.1,0.2c0.6-0.2,1-0.8,0.9-1.1c1,0.3,1.5-1,1.8-0.3c1.1-0.9-0.4-0.2-0.3-0.6c0.3-0.6,1.4-0.9,1.8-1
		c-0.3,0.2-0.5,0.6-0.8,0.6l0.5,0.3c1.7-0.6,0.3-1.6,2-2.2c-0.6,0.7,0,0.5-0.2,1.1c0.2-0.3,1.4-0.8,0.5-0.8c0.6-0.3,1-0.5,1.4-0.6
		c0.2-0.2,0.4-0.5,0.6-0.7c0-0.1,0.1-0.3,0.1-0.5c0.4-0.2,0.7,0.1,0.8,0.3c0.1,0,0.3,0,0.4,0.1c0.1,0,0.1,0.1,0.2,0.1
		c0.1,0.1,0.1,0.1,0.3,0.2c0.8,0.5,1.5,1.1,2.5,1.5l-0.1-0.1c1.3,0.9-0.2-1,1.2-0.1c-0.5,0.4,0.6,0.9,0.9,1.5
		c1.5,1.3,3.2,1.4,4.5,2.8c-0.1,0.1-0.3,0.2-0.6,0c1.1,0.9,2.1,1.4,3.2,2.1l-0.1,0c1.4,1.5,3.3,1.9,5.2,2.9c-0.2,0-0.4,0.2-0.5,0.2
		c0.8,0.7,2.2,1.7,3.2,1.5c0.7,1.2,0.8,0.3,1.9,1.7c0,0.1-0.2,0-0.3,0c0.6,0.6,1.1,0.8,1.7,1.3c0.1,0,0.1,0,0.3,0.1
		c0.1,0.1,0.3,0.1,0.4,0.2c0.2,0.1,0.5,0.2,0.7,0.3c0.4,0.2,0.8,0.3,1.2,0.4c0.7,0.2,1.3,0.4,2,0.7c0.5-0.4,1.2-0.8,2-1.3
		c0.4,0.8-1.8,1.4-1.9,2.3c0.7-0.6,1.2-1.1,2.1-1.5c-0.5,0.7-0.1,0.3-0.4,0.9c0.8-0.2,2.6-2.7,2.3-2.5c-0.1-0.1-0.1-0.2-0.8,0.2
		c0.3-0.5,0.7-0.8,1.2-1c0.5-0.3,1.1-0.6,1.4-0.9c-0.3,0.2-1.2,0.5-1.1,0c1.2-0.5,1.2-1.5,1.8-2.3c1.3-0.3-0.4,1.1,0.2,1.5
		c0.3,0.1,1,0.3,0.7,0.7c1-0.5,1.4-1.4,2.2-2l0.1,0.2c1.1-0.8,2-2.2,3.2-2.5l-0.6,0.2c0.1-0.2,0.8-0.5,0.9-1c0.1,0.3,1,0,0.8,0.4
		c0-1.1,2.4-2.1,2.5-3.3c0.4,0,0.4,0.5,0.4,0.7c-0.8,0.4-1.1,0.4-1.3,0.9c0.6-0.4,1.2-0.5,1.2-0.2c0.3-0.9,1.7-2,1.7-2.7
		c0.6,0,1.1-0.2,1.2,0.4c1.7-1.4-1.7-0.7,0.4-2c1.2-0.2-0.6,1.1,0.8,0.4l-0.2,0.2c1.6,0.5,0.2-1.2,1.3-1.8c0.5,0.5-0.5,0.9,0.5,0.8
		c0.9-0.8,0.8-1.9,1.9-2.4l0,0.3c0.6-0.4,1.9-1.1,2.6-1.5c0.1,0.1,0,0.1-0.1,0.2c1.3-0.5,0.3-0.6,1.5-0.8l0.1-0.5
		c-0.6,0.1-1.7,0.4-2.1,1.1c0.4-0.7-1.4-0.1-1.4-0.8l0,0.3c-2.1,0.1-4.3,1.3-6.5,2.3c-0.9,1.4-2.3,1.1-3.5,2.4
		c0.2,0.8-0.2,0.3-1.3,1.2c0.6-0.5-0.2-0.6-0.7-0.4c-0.1,0.3-0.4,0.6-0.6,0.8c-0.4-0.1-2.2,0.3-2.5,1.1c-0.9,0.2,0-0.3,0.1-0.6
		c-0.5-0.2-0.4,0.6-0.8,0.6c0,0,0-0.1,0-0.2c-1.1,0.7-1.9,0.9-3.1,1.6c0.3,0.7-1,1-1.3,1.5c0-0.3-0.8,0.1-1.2,0.2l-0.3,0.9
		c-0.3,0.8-1,0.2-1.7,0.9l0.3,0c-0.1,0.1-0.3,0.3-0.5,0.4c-0.2,0.1-0.3,0.1-0.5,0.2c-0.3,0-0.6-0.1-0.7-0.2c0,0.1-0.1,0.1-0.1,0.2
		c-0.3,0-0.6,0-0.9-0.1l-0.2-0.1l-0.4-0.2c-0.3-0.2-0.6-0.3-0.8-0.5c-1.1-0.7-2-1.4-2.9-2.2c-1.9-1.6-3.7-3.3-6.6-4.8
		c-0.5,0,0.1,0.5-0.4,0.6c-0.6-0.3-0.7-0.4-1.3-0.7c0.3,0.5,0.4,0.2,0.2,0.3l0.9,0.3c0,0.1-0.1,0-0.1,0.2c0.3,0.1,0.7,0.2,1,0.4
		c-0.6-0.1-1,0.3-1.6-0.3c0.1,0,0.2,0,0.4,0.1c-0.5-0.4-0.7-0.2-1-0.6c-0.4-0.4-0.4-0.2-0.3-0.5l-1.4-1.2c-1.2,0.1-1.8-1.1-2-1.3
		c0.4-0.3,1.1,0.5,1.8,0.3l-0.4-0.7l-0.3,0.3l-0.8-0.6l0.1,0c-0.2,0.1-0.4,0.2-0.5-0.1c0-0.1,0-0.2,0.1-0.2l-0.7-0.2
		c0.6-0.2-0.4-0.4-0.1-0.8c-1.8-1.4-2.8-0.9-4.1-2.5c0.1,0.4-0.9,0.3-1.4-0.1c-0.2-0.3-0.2-0.4,0-0.5c0,0-0.2,0-0.4-0.1
		c-0.3-0.1-0.6-0.2-0.6-0.2c-0.3-0.4-0.6-0.7-1-1.1c-0.4-0.3-0.8-0.4-1.2-0.5c-0.2-0.1-0.4-0.1-0.7-0.2c-0.2-0.1-0.5-0.2-0.7,0
		c-0.5,0.2-1,0.3-1.6,0.4l0.1-0.3c-0.4,0.2-0.8,0.7-1.3,1c-0.4,0.3-1.1,0.8-1.4,0.9L135,8.1c-1,0.3-0.2,1.2-1.2,1.5
		c0.3,0.4,1,0.2,1.3,0.6c-0.5-0.3-1.5,0.3-1.1,0.4c-0.8,0.7-0.6,0.4-0.8,0.3l-0.4,0.6c-0.7,0.4-0.5-0.4-0.4-0.8
		c-0.3,0.8-1.2,0.9-1.9,1.3l0.2-0.4l-0.9,0.5c-0.4,0.7-1.2,1.2-2.1,1.5l0.2-0.9c-0.7,0.1-0.2,0.4-0.2,0.5c-0.7,0.8-1.1,0.5-1.7,0.5
		C124.8,15.3,122.6,14.7,121.9,16.2z M31.6,10.6l0.1,0.2C31.3,10.6,31.1,10.6,31.6,10.6z M38.9,15.3c-1-0.3-0.6-0.4-0.6-0.6
		c0.8,0.7,1.4,0.8,2.1,1.5c-0.1-0.2,0-0.3,0-0.5c0.3,0.2,0.5,0.5,0.5,0.9C40.2,16.9,38.7,14.8,38.9,15.3z M22.4,15.3
		c0-0.1,0-0.1,0-0.2c0,0,0,0,0,0L22.4,15.3z M26.4,12.2c0.1,0.1,0.2,0.1,0.3,0.1C26.6,12.2,26.5,12.1,26.4,12.2z M33.7,16
		c0.1,0.3,0.6,0.6,0.9,0.7C34.5,16.6,34.3,16.3,33.7,16z M89.4,15.6c-0.3-0.1-1-0.2-0.6,0.3c0.3-0.1,0.6,0.5,0.9,0.4c0,0,0,0,0,0.1
		C89.6,15.9,89.5,15.6,89.4,15.6z M116.2,23.9c0.1,0.2,0,0.6,0.3,0.7c0,0-0.1,0-0.1,0c0.1,0,0.2,0.1,0.2,0.1
		c0.2-0.1,0.5-0.2,0.6-0.3C116.8,23.6,117.2,23.3,116.2,23.9z"/>
	<path fill="#61A9B9" d="M106.1,27.5c0.1,0.1,0.2,0.1,0.3,0.1C106.3,27.6,106.2,27.5,106.1,27.5z"/>
	<path fill="#61A9B9" d="M117.1,24.4c0-0.1-0.3,0-0.7,0.1C116.6,24.6,116.8,24.6,117.1,24.4z"/>
	<path fill="#61A9B9" d="M6.5,21.9l0.2-0.2l-0.7,0.1c-0.7,0.8-0.6,1.1-0.6,1.6c0.6-0.8,1.1-0.9,2.1-1.7L6.5,21.9z"/>
	<path fill="#61A9B9" d="M8.4,24c0.1,0,0.5,0.1,0.7,0.1l0-0.3L8.4,24z"/>
	<path fill="#61A9B9" d="M19.3,18.7L18.4,19C18.2,19.3,19.4,19.1,19.3,18.7z"/>
	<path fill="#61A9B9" d="M13.4,17.2l-0.3,0.5c0.5-0.1,1-0.4,0.9-0.7C13.6,17.4,13.8,16.9,13.4,17.2z"/>
	<path fill="#61A9B9" d="M21.6,17.3c0-0.6,0.9-0.3,0.9-0.8C22.3,16.8,21.3,16.9,21.6,17.3z"/>
	<path fill="#61A9B9" d="M18.5,13.6c-0.5-0.2-0.7,0.4-1.3,0.6C17.6,14,18.5,14,18.5,13.6z"/>
	<path fill="#61A9B9" d="M25.2,13.4c0.1,0.3-0.2,0.5-0.6,0.7c0.1-0.2,0.1-0.4,0.2-0.5c-0.5,0.6-0.6,0.6-1,1.1c0.7-0.1,1.5-0.5,1.7,0
		C25.6,14.1,25.8,13.4,25.2,13.4z"/>
	<path fill="#61A9B9" d="M19.7,12.8c-0.5,0.1-0.9,0-1.4,0.4c0.2,0.2,0.6,0.4,1.2-0.1l0,0.5C20.1,13.5,18.9,13.3,19.7,12.8z"/>
	<path fill="#61A9B9" d="M27.4,13.2l-0.2-0.1c-0.1,0.3-0.2,0.4-0.3,0.5c-0.2,0.2-0.5,0.5-0.5,0.8c0.2-0.1,0.4-0.3,0.5-0.4l0.1-0.1
		c0,0,0,0,0-0.1l0.1-0.1C27.2,13.6,27.3,13.4,27.4,13.2z"/>
	<path fill="#61A9B9" d="M22.2,12.2L22,11.6c-0.6,0.3,0.1,0.1,0,0.4c-0.2,0-0.5,0.2-0.6,0.3C22.1,11.8,21.7,12.7,22.2,12.2z"/>
	<path fill="#61A9B9" d="M23.8,10.4l0.7-0.7c0,0-1-0.2-1-0.2C22.8,10.3,23.7,9.9,23.8,10.4z"/>
	<path fill="#61A9B9" d="M25.1,10.1l0.2,0c0,0,0.3-0.4,0.6-0.9c0.3-0.5,0.7-1,0.7-1C25.6,9.3,25.6,9.3,25.1,10.1z"/>
	<path fill="#61A9B9" d="M38.5,19.5c0.3-0.1-0.3-0.8-0.1-0.4C38.1,19.2,38.9,20.1,38.5,19.5z"/>
	<path fill="#61A9B9" d="M38.2,13.8c0.2,0.4,1.5,0.7,2.1,0.9C39.6,14.5,38.3,13.5,38.2,13.8z"/>
	<path fill="#61A9B9" d="M40.5,14.8c0,0-0.1,0-0.2-0.1C40.3,14.7,40.4,14.8,40.5,14.8z"/>
	<path fill="#61A9B9" d="M57,21.9c0,0,0.1-0.1,0.1-0.1C57,21.8,57,21.8,57,21.9z"/>
	<path fill="#61A9B9" d="M56.6,22.3c-0.2,0.1-0.4,0.2-0.6,0.4c0,0.1,0,0.2,0.1,0.3l0-0.1c0,0,0,0,0,0l0.1-0.1l0.2-0.2
		c0.2-0.2,0.4-0.5,0.6-0.8C56.8,22.1,56.4,22.1,56.6,22.3z"/>
	<path fill="#61A9B9" d="M61.2,19.6c-0.2,0.3-0.5,0.4-0.3,0.6C61.1,20.2,61.5,19.6,61.2,19.6z"/>
	<path fill="#61A9B9" d="M92.1,19.6c0.4,0.4,0.7,0.5,0.8,0.1C92.3,19.3,92.5,19.7,92.1,19.6z"/>
	<polygon fill="#61A9B9" points="93.4,19.9 93.4,20.1 93.5,20.5 	"/>
	<path fill="#61A9B9" d="M96.2,22.3c-0.1,0-0.2,0-0.3,0C96.1,22.4,96.3,22.4,96.2,22.3z"/>
	<path fill="#61A9B9" d="M95.8,22.3C95.8,22.3,95.9,22.3,95.8,22.3C95.9,22.3,95.9,22.3,95.8,22.3z"/>
	<path fill="#61A9B9" d="M95.7,22l-0.1,0.1c0.1,0,0.2,0,0.3,0.1C95.7,22.2,95.7,22.1,95.7,22z"/>
	<path fill="#61A9B9" d="M97.1,22.9l-0.3-0.8c-0.7-0.1,0.5,0.7-0.4,0.8L97.1,22.9z"/>
	<path fill="#61A9B9" d="M99.2,24c0.5,0.5,1.7,0.2,1.7,1c1.7,0.7,0.2-1.2,2.1-0.3c-1.5-1.3-1.5,0.5-2.8-0.7
		C100.7,24.9,99.5,24,99.2,24z"/>
	<path fill="#61A9B9" d="M99.5,22.9c-0.3,0.2,0.4,0.7,0.8,0.6C100.1,23.4,99.9,22.8,99.5,22.9z"/>
	<polygon fill="#61A9B9" points="102.4,25.7 102.7,26.2 103,26.1 	"/>
	<path fill="#61A9B9" d="M104.1,26.9l-0.7,0C103.7,26.9,104.4,27.4,104.1,26.9z"/>
	<path fill="#61A9B9" d="M106.4,28.9c0.4,0.4,1.2-0.1,0.2-0.5l0.2,0.2C106.7,28.6,107,29.2,106.4,28.9z"/>
	<path fill="#61A9B9" d="M115.8,27.8c-0.3,0.2-0.6,0.5-0.5,0.6l0.7-0.7L115.8,27.8z"/>
	<path fill="#61A9B9" d="M114.5,26c-0.3-0.1-0.5,0-0.7,0.2c-0.2,0.2-0.5,0.5-0.8,0.6C113.8,26.5,113.8,26.5,114.5,26z"/>
	<path fill="#61A9B9" d="M117.1,27.8c-0.1,0.3-0.5,0.4-0.8,0.5C116.6,28.5,117.2,28.1,117.1,27.8z"/>
	<path fill="#61A9B9" d="M118.4,26.8c0.4,0,0.1,0.3,0.4,0.3c0.7-0.2,1.3-0.6,1.5-1c-0.3-0.1-0.8-0.5-0.7-0.9
		c-0.8,0.7-0.8,1.9-1.6,1.5l-0.3,1.3C118.4,27.7,117.8,27.1,118.4,26.8z"/>
	<path fill="#61A9B9" d="M115.5,26.5l0.7,0c-0.3-0.2,0.1-0.5,0.3-0.7C116,25.2,115.8,26.3,115.5,26.5z"/>
	<polygon fill="#61A9B9" points="123.3,23.3 124.2,22.5 123.9,22.7 	"/>
	<polygon fill="#61A9B9" points="124.1,23.1 124.2,23.2 124.8,22.4 	"/>
	<polygon fill="#61A9B9" points="125.3,22.6 125.2,22.6 124.6,23.2 	"/>
	<path fill="#61A9B9" d="M127.6,21.3l-0.3-0.1c-0.2,0.2-0.9,0.3-0.7,0.6C126.7,21.5,127.3,21.2,127.6,21.3z"/>
	<path fill="#61A9B9" d="M131,10.6c-0.1,0.3,0.1,0.4,0.3,0.4l0-0.6C131.3,10.5,131.1,10.6,131,10.6z"/>
	<path fill="#61A9B9" d="M132.7,10.5l0.5-1c-0.9,0.5-0.8,0.9-1.6,1.5c0.4-0.1,0.7-0.7,1.2-0.8L132.7,10.5z"/>
	<path fill="#61A9B9" d="M151.4,14.1c-0.3,0.3-0.1,0.3-0.8,0.2c0.9,0.3,1.6,0.8,2.5,1.3c0-0.3,0.9-0.2,0.5-0.3l-1.1-0.4l0.3-0.1
		C152.2,14,152.1,14.8,151.4,14.1z"/>
	<path fill="#61A9B9" d="M191.5,13.7c0,0.2,0.2,0.3,0.4,0.3C192.4,13.5,191.4,13.8,191.5,13.7z"/>
</g>
</svg>
